<svg xmlns="http://www.w3.org/2000/svg" viewBox="0 0 200 200"><path d="M100.429971 2C46.1318899 2 2 46.1324825 2 100.447148 2 154.867518 46.1318899 199 100.429971 199 154.86811 199 199 154.867518 199 100.447148 199 46.1324825 154.86811 2 100.429971 2Zm0 177.57114c-43.5267303 0-79.0013718-35.475118-79.0013718-79.121351 0-43.403109 35.4746415-79.020929 79.0013718-79.020929 43.524084 0 79.141426 35.61782 79.141426 79.020929 0 43.646233-35.617342 79.121351-79.141426 79.121351Zm43.415735-95.0618961c0-19.7565518-13.252778-31.3842717-35.894814-31.3842717H59.0860541V147.73233h25.9083245v-31.574544h14.1776983l17.5681911 31.574544h29.909263l-21.082887-34.539613c11.833688-4.653731 18.279058-14.5557916 18.279058-28.6834731h.000004ZM84.9943746 96.4250172V72.8577409h18.0174364c9.294123 0 14.132774 4.4528899 14.132774 11.651507 0 7.3201774-4.838651 11.9157693-14.132774 11.9157693H84.9943746Z"/></svg>